<?xml version="1.0" standalone="no"?>
<!DOCTYPE svg PUBLIC "-//W3C//DTD SVG 20010904//EN"
 "http://www.w3.org/TR/2001/REC-SVG-20010904/DTD/svg10.dtd">
<svg version="1.0" xmlns="http://www.w3.org/2000/svg"
 width="300.000000pt" height="300.000000pt" viewBox="0 0 300.000000 300.000000"
 preserveAspectRatio="xMidYMid meet">
<metadata>
Created by potrace 1.11, written by Peter Selinger 2001-2013
</metadata>
<g transform="translate(0.000000,300.000000) scale(0.100000,-0.100000)"
fill="#000000" stroke="none">
<path d="M487 2986 c-46 -17 -62 -28 -109 -80 -57 -60 -74 -134 -52 -218 16
-62 98 -216 190 -356 41 -62 74 -117 74 -122 0 -6 3 -10 8 -10 4 0 12 -9 17
-20 12 -23 191 -301 306 -475 44 -66 83 -127 86 -135 4 -8 11 -19 15 -25 5 -5
46 -66 91 -135 l81 -125 2 -495 c1 -313 5 -516 12 -552 29 -150 118 -228 267
-236 69 -4 88 -1 135 20 84 38 144 110 166 203 4 17 9 261 11 543 l4 514 27
41 c15 23 29 44 32 47 3 3 10 13 15 23 12 20 85 132 412 632 313 478 358 552
384 627 68 200 -57 361 -271 346 -40 -3 -78 -12 -96 -23 -38 -24 -102 -90
-135 -141 -25 -37 -394 -629 -428 -686 -9 -15 -45 -74 -81 -130 -36 -57 -71
-115 -79 -130 -7 -16 -17 -28 -22 -28 -5 0 -9 -6 -9 -12 -1 -19 -41 -65 -46
-53 -5 13 -400 657 -411 670 -4 6 -39 62 -78 125 -179 296 -236 368 -313 396
-48 17 -157 17 -205 0z"/>
</g>
</svg>
